<mxfile host="app.diagrams.net" modified="2024-09-13T02:10:48.240Z" agent="Mozilla/5.0 (Windows NT 10.0; Win64; x64) AppleWebKit/537.36 (KHTML, like Gecko) Chrome/128.0.0.0 Safari/537.36" etag="7ouUzAHOBAmGVd-W4BIU" version="24.7.2" type="device">
  <diagram name="Halaman-1" id="bVFtDgzvBl2LTejsERvg">
    <mxGraphModel dx="1194" dy="638" grid="1" gridSize="10" guides="1" tooltips="1" connect="1" arrows="1" fold="1" page="1" pageScale="1" pageWidth="827" pageHeight="1169" math="0" shadow="0">
      <root>
        <mxCell id="0" />
        <mxCell id="1" parent="0" />
        <mxCell id="wN5caEg72jbfcJbXo5iI-1" value="" style="rounded=1;whiteSpace=wrap;html=1;" vertex="1" parent="1">
          <mxGeometry x="60" y="110" width="640" height="400" as="geometry" />
        </mxCell>
        <mxCell id="wN5caEg72jbfcJbXo5iI-5" value="Tambah Alamat" style="rounded=1;whiteSpace=wrap;html=1;" vertex="1" parent="1">
          <mxGeometry x="330" y="357.5" width="120" height="35" as="geometry" />
        </mxCell>
        <mxCell id="wN5caEg72jbfcJbXo5iI-2" value="&lt;div style=&quot;&quot;&gt;&lt;span style=&quot;font-size: 24px; background-color: initial;&quot;&gt;Alamat yang sudah ada&amp;nbsp;&lt;/span&gt;&lt;/div&gt;" style="rounded=1;whiteSpace=wrap;html=1;align=center;" vertex="1" parent="1">
          <mxGeometry x="100" y="180" width="490" height="90" as="geometry" />
        </mxCell>
        <mxCell id="wN5caEg72jbfcJbXo5iI-3" value="Hapus" style="rounded=1;whiteSpace=wrap;html=1;" vertex="1" parent="1">
          <mxGeometry x="610" y="195" width="70" height="60" as="geometry" />
        </mxCell>
        <mxCell id="wN5caEg72jbfcJbXo5iI-4" value="&lt;font style=&quot;font-size: 36px;&quot;&gt;+&lt;/font&gt;" style="ellipse;whiteSpace=wrap;html=1;" vertex="1" parent="1">
          <mxGeometry x="290" y="350" width="50" height="50" as="geometry" />
        </mxCell>
        <mxCell id="wN5caEg72jbfcJbXo5iI-6" value="" style="rounded=1;whiteSpace=wrap;html=1;" vertex="1" parent="1">
          <mxGeometry x="110" y="195" width="70" height="60" as="geometry" />
        </mxCell>
      </root>
    </mxGraphModel>
  </diagram>
</mxfile>
